<svg width="2300" height="164" viewBox="0 0 2300 164" fill="none" xmlns="http://www.w3.org/2000/svg">
<path d="M0 136.437C0 136.437 28.0477 77.7863 62.9863 67.7791C112.274 53.6622 124.737 126.164 174.962 136.437C268.745 155.618 324.763 59.5937 391.415 21.1722C458.067 -17.2493 572.563 123.695 700.848 136.437C886.734 154.9 977.438 -31.3784 1160.75 4.63423C1260.66 24.2636 1297.83 90.5476 1396.2 116.892C1555.49 159.554 1654.29 119.63 1818.1 100.855C1956.25 85.0223 2030.4 21.7414 2168.53 37.7101C2220.84 43.7583 2300 67.7791 2300 67.7791V164H0V136.437Z" fill="white"/>
</svg>
