<svg width="2300" height="159" viewBox="0 0 2300 159" fill="none" xmlns="http://www.w3.org/2000/svg">
<path d="M15.9192 0.205892C67.5906 3.01284 70.677 50.5421 122.526 49.7123C158.186 49.1416 169.436 29.1092 204.225 24.1807C269.478 14.9363 303.97 45.9863 370.612 49.7123C475.873 55.5976 532.542 21.3353 638.126 24.1807C720.537 26.4016 763.061 46.2407 845.362 49.7123C970.796 55.0033 1039.01 26.3083 1164.68 24.1807C1324.17 21.4806 1541.13 42.8624 1571.19 49.7123C1601.24 56.5622 1659.25 72.6426 1718.64 80.537C1858.57 99.1355 1944.46 85.6883 2084.3 66.8372C2170.66 55.1941 2300 24.1807 2300 24.1807V159H-6V0.205892C-6 0.205892 7.39137 -0.257365 15.9192 0.205892Z" fill="#CF0000"/>
</svg>
