<svg width="2300" height="159" viewBox="0 0 2300 159" fill="none" xmlns="http://www.w3.org/2000/svg">
<path d="M18.9192 0.205892C70.5906 3.01284 73.677 50.5421 125.526 49.7123C161.186 49.1416 172.436 29.1092 207.225 24.1807C272.478 14.9363 306.97 45.9863 373.612 49.7123C478.873 55.5976 535.542 21.3353 641.126 24.1807C723.537 26.4016 766.061 46.2407 848.362 49.7123C973.796 55.0033 1042.01 26.3083 1167.68 24.1807C1327.17 21.4806 1544.13 42.8624 1574.19 49.7123C1604.24 56.5622 1662.25 72.6426 1721.64 80.537C1861.57 99.1355 1947.46 85.6883 2087.3 66.8372C2173.66 55.1941 2303 24.1807 2303 24.1807V159H-3V0.205892C-3 0.205892 10.3914 -0.257365 18.9192 0.205892Z" fill="#CF0000"/>
</svg>
